<svg xmlns="http://www.w3.org/2000/svg" width="47.483" height="47.483" viewBox="0 0 47.483 47.483">
  <g id="Component_33_1" data-name="Component 33 – 1" transform="translate(0.5 0.5)">
    <path id="Path_453" data-name="Path 453" d="M204.2,983.422a23.232,23.232,0,0,1-20.288,23.051,21.812,21.812,0,0,1-2.949.2,22.331,22.331,0,0,1-4.127-.371A23.24,23.24,0,1,1,204.2,983.422Z" transform="translate(-157.719 -960.186)" fill="transparent" stroke="#707070" stroke-linecap="round" stroke-linejoin="round" stroke-width="1"/>
    <path id="Path_452" data-name="Path 452" d="M190.39,980.647c-.087,1.758-.022,3.538-.022,5.416h6.748c-.164,1.321-.306,2.544-.458,3.767-.12.851-.295,1.7-.35,2.555-.032.612-.306.666-.786.655-1.507-.022-3,0-4.5,0h-.775v16.794c0,.153-.011.306-.022.448a21.812,21.812,0,0,1-2.949.2,22.331,22.331,0,0,1-4.127-.371,2.222,2.222,0,0,1-.011-.273V993.051h-5.995v-6.966h5.995v-3.3a16.835,16.835,0,0,1,.47-5.274,7.916,7.916,0,0,1,7.512-5.6c1.889-.022,3.778.088,5.667.142.317,0,.622.012.612.47-.011,1.933,0,3.865,0,5.918h-1c-1.322.044-2.654.022-3.986.153A2.066,2.066,0,0,0,190.39,980.647Z" transform="translate(-164.031 -963.995)" fill="none" stroke="#707070" stroke-linecap="round" stroke-linejoin="round" stroke-width="1"/>
    <path id="Path_454" data-name="Path 454" d="M182.5,967.074a19.322,19.322,0,0,1,3.891-.944" transform="translate(-165.772 -962.117)" fill="none" stroke="#707070" stroke-linecap="round" stroke-linejoin="round" stroke-width="1"/>
    <path id="Path_455" data-name="Path 455" d="M163.986,983.019a19.414,19.414,0,0,1,7.97-12.045" transform="translate(-159.755 -963.691)" fill="none" stroke="#707070" stroke-linecap="round" stroke-linejoin="round" stroke-width="1"/>
    <g id="Group_104" data-name="Group 104" transform="translate(31.806 24.59)">
      <g id="_Radial_Repeat_" data-name="&lt;Radial Repeat&gt;" transform="translate(9.545)">
        <line id="Line_302" data-name="Line 302" x1="1.891" y1="0.141" fill="none" stroke="#707070" stroke-linecap="round" stroke-linejoin="round" stroke-width="1"/>
      </g>
      <g id="_Radial_Repeat_2" data-name="&lt;Radial Repeat&gt;" transform="translate(8.641 4.461)">
        <line id="Line_303" data-name="Line 303" x1="1.797" y1="0.607" fill="none" stroke="#707070" stroke-linecap="round" stroke-linejoin="round" stroke-width="1"/>
      </g>
      <g id="_Radial_Repeat_3" data-name="&lt;Radial Repeat&gt;" transform="translate(6.655 8.558)">
        <line id="Line_304" data-name="Line 304" x1="1.59" y1="1.035" fill="none" stroke="#707070" stroke-linecap="round" stroke-linejoin="round" stroke-width="1"/>
      </g>
      <g id="_Radial_Repeat_4" data-name="&lt;Radial Repeat&gt;" transform="translate(3.713 12.031)">
        <line id="Line_305" data-name="Line 305" x1="1.282" y1="1.397" fill="none" stroke="#707070" stroke-linecap="round" stroke-linejoin="round" stroke-width="1"/>
      </g>
      <g id="_Radial_Repeat_5" data-name="&lt;Radial Repeat&gt;" transform="translate(0 14.664)">
        <line id="Line_306" data-name="Line 306" x1="0.895" y1="1.672" fill="none" stroke="#707070" stroke-linecap="round" stroke-linejoin="round" stroke-width="1"/>
      </g>
    </g>
  </g>
</svg>
