<svg xmlns="http://www.w3.org/2000/svg" width="47.483" height="47.483" viewBox="0 0 47.483 47.483">
  <g id="Component_32_1" data-name="Component 32 – 1" transform="translate(0.5 0.5)">
    <g id="Group_107" data-name="Group 107">
      <ellipse id="Ellipse_84" data-name="Ellipse 84" cx="23.242" cy="23.242" rx="23.242" ry="23.242" fill="transparent" stroke="#707070" stroke-linecap="round" stroke-linejoin="round" stroke-width="1"/>
      <path id="Path_458" data-name="Path 458" d="M194.955,880.148l-23.6,10.053a1.237,1.237,0,0,0,.1,2.315l4.889,1.58a1.238,1.238,0,0,0,1.067-.147l12.287-8.186a.428.428,0,0,1,.535.663l-8.556,8.289a1.237,1.237,0,0,0,.165,1.912l9.385,6.385a1.238,1.238,0,0,0,1.916-.816l3.514-20.7A1.237,1.237,0,0,0,194.955,880.148Z" transform="translate(-161.905 -867.156)" fill="transparent" stroke="#707070" stroke-linecap="round" stroke-linejoin="round" stroke-width="1"/>
    </g>
    <path id="Path_459" data-name="Path 459" d="M182.5,867.84a19.329,19.329,0,0,1,3.891-.944" transform="translate(-165.772 -862.883)" fill="none" stroke="#707070" stroke-linecap="round" stroke-linejoin="round" stroke-width="1"/>
    <path id="Path_460" data-name="Path 460" d="M163.986,883.785a19.414,19.414,0,0,1,7.97-12.045" transform="translate(-159.755 -864.457)" fill="none" stroke="#707070" stroke-linecap="round" stroke-linejoin="round" stroke-width="1"/>
  </g>
</svg>
