<svg xmlns="http://www.w3.org/2000/svg" width="47.483" height="47.483" viewBox="0 0 47.483 47.483">
  <g id="Component_34_1" data-name="Component 34 – 1" transform="translate(0.5 0.5)">
    <g id="Group_112" data-name="Group 112">
      <ellipse id="Ellipse_85" data-name="Ellipse 85" cx="23.242" cy="23.242" rx="23.242" ry="23.242" fill="transparent" stroke="#707070" stroke-linecap="round" stroke-linejoin="round" stroke-width="1"/>
    </g>
    <path id="Path_463" data-name="Path 463" d="M182.5,1274.586a19.273,19.273,0,0,1,3.891-.944" transform="translate(-165.772 -1269.629)" fill="none" stroke="#707070" stroke-linecap="round" stroke-linejoin="round" stroke-width="1"/>
    <path id="Path_464" data-name="Path 464" d="M163.986,1290.531a19.415,19.415,0,0,1,7.97-12.045" transform="translate(-159.755 -1271.204)" fill="none" stroke="#707070" stroke-linecap="round" stroke-linejoin="round" stroke-width="1"/>
    <path id="Path_465" data-name="Path 465" d="M178.115,1301.134a5.881,5.881,0,0,1-4.177-5.554c.823.231,1.559.433,2.3.64.027-.042.055-.083.081-.125a5.94,5.94,0,0,1-2.336-4.822,4.169,4.169,0,0,1,.842-2.531c.676.649,1.33,1.325,2.039,1.939a15.61,15.61,0,0,0,7.948,3.667c.385.057.772.113,1.155.164.353.048.493-.035.433-.449a5.732,5.732,0,0,1,4.5-6.38,5.459,5.459,0,0,1,4.942,1.316.85.85,0,0,0,.964.22c.922-.358,1.838-.734,2.753-1.1.055-.022.113-.038.253-.086a5.892,5.892,0,0,1-2.058,2.893c.018.051.036.1.057.157.865-.235,1.73-.467,2.594-.7.025.025.048.051.074.077a13.628,13.628,0,0,1-.881,1.12c-.474.492-1.005.928-1.489,1.41a.849.849,0,0,0-.25.515,17.044,17.044,0,0,1-4.391,11.546,14.845,14.845,0,0,1-9.325,4.929,16.252,16.252,0,0,1-10.37-1.828,3.929,3.929,0,0,1-.731-.534,11.877,11.877,0,0,0,8.145-2.347,6.1,6.1,0,0,1-3.243-1.2,5.765,5.765,0,0,1-1.968-2.779h2.123c.007-.048.016-.1.024-.152" transform="translate(-162.695 -1274.151)" fill="none" stroke="#707070" stroke-linecap="round" stroke-linejoin="round" stroke-width="1"/>
  </g>
</svg>
